<svg xmlns="http://www.w3.org/2000/svg" viewBox="0 0 1600 1000" role="img" aria-labelledby="title desc">
  <title id="title">文创商品小程序项目封面</title>
  <desc id="desc">展示文创商品、分类和购物车的小程序界面插画</desc>
  <defs>
    <linearGradient id="bg" x1="0" y1="0" x2="1" y2="1">
      <stop stop-color="#052e2b"/>
      <stop offset=".55" stop-color="#0f766e"/>
      <stop offset="1" stop-color="#155e75"/>
    </linearGradient>
    <linearGradient id="card" x1="0" y1="0" x2="1" y2="1">
      <stop stop-color="#fef3c7"/>
      <stop offset="1" stop-color="#fca5a5"/>
    </linearGradient>
    <linearGradient id="card2" x1="0" y1="0" x2="1" y2="1">
      <stop stop-color="#ddd6fe"/>
      <stop offset="1" stop-color="#93c5fd"/>
    </linearGradient>
    <filter id="shadow" x="-30%" y="-20%" width="160%" height="150%">
      <feDropShadow dx="0" dy="32" stdDeviation="32" flood-color="#022c22" flood-opacity=".55"/>
    </filter>
  </defs>
  <rect width="1600" height="1000" fill="url(#bg)"/>
  <circle cx="135" cy="160" r="230" fill="#2dd4bf" opacity=".13"/>
  <circle cx="1490" cy="860" r="330" fill="#22d3ee" opacity=".12"/>
  <g fill="none" stroke="#99f6e4" stroke-width="3" opacity=".25">
    <path d="M70 790c135-190 222-70 337-233S608 321 738 446"/>
    <path d="M1164 90c-70 150 54 192 12 315s-20 218 114 285"/>
  </g>
  <g transform="translate(175 120)" filter="url(#shadow)">
    <rect width="420" height="790" rx="62" fill="#0f172a"/>
    <rect x="16" y="16" width="388" height="758" rx="48" fill="#f8fafc"/>
    <rect x="145" y="27" width="130" height="24" rx="12" fill="#0f172a"/>
    <text x="46" y="95" font-family="Arial, sans-serif" font-size="28" font-weight="700" fill="#134e4a">好物集</text>
    <circle cx="350" cy="83" r="19" fill="#ccfbf1"/>
    <rect x="38" y="120" width="344" height="145" rx="26" fill="url(#card)"/>
    <circle cx="306" cy="180" r="56" fill="#fff" opacity=".32"/>
    <path d="M285 154l42 52M327 154l-42 52" stroke="#fff" stroke-width="8" stroke-linecap="round" opacity=".75"/>
    <text x="63" y="174" font-family="Arial, sans-serif" font-size="24" font-weight="700" fill="#7c2d12">发现生活灵感</text>
    <text x="63" y="207" font-family="Arial, sans-serif" font-size="15" fill="#9a3412">城市文创 · 今日上新</text>
    <g transform="translate(38 295)">
      <circle cx="36" cy="36" r="36" fill="#d1fae5"/>
      <circle cx="126" cy="36" r="36" fill="#fef3c7"/>
      <circle cx="216" cy="36" r="36" fill="#e0e7ff"/>
      <circle cx="306" cy="36" r="36" fill="#fce7f3"/>
      <g fill="#64748b">
        <rect x="12" y="83" width="48" height="8" rx="4"/>
        <rect x="102" y="83" width="48" height="8" rx="4"/>
        <rect x="192" y="83" width="48" height="8" rx="4"/>
        <rect x="282" y="83" width="48" height="8" rx="4"/>
      </g>
    </g>
    <text x="38" y="424" font-family="Arial, sans-serif" font-size="20" font-weight="700" fill="#1e293b">人气推荐</text>
    <g transform="translate(38 450)">
      <rect width="162" height="210" rx="20" fill="#fff" stroke="#e2e8f0"/>
      <rect width="162" height="130" rx="20" fill="url(#card2)"/>
      <circle cx="81" cy="65" r="38" fill="#fff" opacity=".45"/>
      <path d="M58 75l23-36 24 36z" fill="#6366f1" opacity=".65"/>
      <rect x="14" y="148" width="104" height="11" rx="5" fill="#334155"/>
      <rect x="14" y="172" width="62" height="9" rx="4" fill="#f97316"/>
      <rect x="182" width="162" height="210" rx="20" fill="#fff" stroke="#e2e8f0"/>
      <rect x="182" width="162" height="130" rx="20" fill="#d1fae5"/>
      <circle cx="263" cy="65" r="41" fill="#6ee7b7"/>
      <path d="M244 48h38v39h-38z" fill="#fff" opacity=".65"/>
      <rect x="196" y="148" width="104" height="11" rx="5" fill="#334155"/>
      <rect x="196" y="172" width="62" height="9" rx="4" fill="#f97316"/>
    </g>
    <rect x="38" y="708" width="344" height="1" fill="#e2e8f0"/>
    <g fill="#94a3b8">
      <circle cx="73" cy="740" r="8" fill="#14b8a6"/>
      <circle cx="164" cy="740" r="8"/>
      <circle cx="255" cy="740" r="8"/>
      <circle cx="346" cy="740" r="8"/>
    </g>
  </g>
  <g transform="translate(670 188)" filter="url(#shadow)">
    <rect width="755" height="620" rx="35" fill="#f8fafc"/>
    <rect width="755" height="72" rx="35" fill="#fff"/>
    <circle cx="43" cy="36" r="8" fill="#fb7185"/>
    <circle cx="70" cy="36" r="8" fill="#fbbf24"/>
    <circle cx="97" cy="36" r="8" fill="#34d399"/>
    <rect y="72" width="142" height="548" fill="#0f172a"/>
    <rect x="23" y="107" width="96" height="38" rx="10" fill="#0f766e"/>
    <g fill="#64748b">
      <rect x="28" y="180" width="75" height="10" rx="5"/>
      <rect x="28" y="228" width="88" height="10" rx="5"/>
      <rect x="28" y="276" width="67" height="10" rx="5"/>
      <rect x="28" y="324" width="81" height="10" rx="5"/>
    </g>
    <g transform="translate(177 109)">
      <text x="0" y="22" font-family="Arial, sans-serif" font-size="22" font-weight="700" fill="#1e293b">运营看板</text>
      <g transform="translate(0 52)">
        <rect width="164" height="92" rx="16" fill="#ccfbf1"/>
        <rect x="18" y="18" width="64" height="9" rx="4" fill="#5eead4"/>
        <rect x="18" y="44" width="96" height="20" rx="6" fill="#115e59"/>
        <rect x="184" width="164" height="92" rx="16" fill="#fef3c7"/>
        <rect x="202" y="18" width="64" height="9" rx="4" fill="#fbbf24"/>
        <rect x="202" y="44" width="96" height="20" rx="6" fill="#92400e"/>
        <rect x="368" width="164" height="92" rx="16" fill="#ede9fe"/>
        <rect x="386" y="18" width="64" height="9" rx="4" fill="#a78bfa"/>
        <rect x="386" y="44" width="96" height="20" rx="6" fill="#5b21b6"/>
      </g>
      <rect y="172" width="532" height="260" rx="19" fill="#fff" stroke="#e2e8f0"/>
      <text x="20" y="205" font-family="Arial, sans-serif" font-size="15" font-weight="700" fill="#334155">商品销售趋势</text>
      <g stroke="#e2e8f0">
        <path d="M24 254H508M24 303H508M24 352H508"/>
      </g>
      <path d="M24 361c55-45 83-20 127-73s80 7 129-38 98-9 142-56 67-13 86-30" fill="none" stroke="#14b8a6" stroke-width="8" stroke-linecap="round"/>
      <g fill="#14b8a6">
        <circle cx="151" cy="288" r="7"/>
        <circle cx="280" cy="250" r="7"/>
        <circle cx="422" cy="194" r="7"/>
      </g>
    </g>
  </g>
</svg>
